<svg xmlns="http://www.w3.org/2000/svg" viewBox="0 0 640 420" fill="none">
  <defs>
    <linearGradient id="bg" x1="62" y1="26" x2="566" y2="394" gradientUnits="userSpaceOnUse">
      <stop stop-color="#EEF2FF"/>
      <stop offset=".5" stop-color="#F8FAFF"/>
      <stop offset="1" stop-color="#E9FCFF"/>
    </linearGradient>
    <linearGradient id="panel" x1="98" y1="78" x2="546" y2="338" gradientUnits="userSpaceOnUse">
      <stop stop-color="#FFFFFF" stop-opacity=".96"/>
      <stop offset="1" stop-color="#FFFFFF" stop-opacity=".72"/>
    </linearGradient>
    <linearGradient id="blue" x1="162" y1="286" x2="162" y2="142" gradientUnits="userSpaceOnUse">
      <stop stop-color="#4C62FF"/>
      <stop offset="1" stop-color="#8DA0FF"/>
    </linearGradient>
    <linearGradient id="cyan" x1="0" y1="0" x2="1" y2="1">
      <stop stop-color="#10B4FF"/>
      <stop offset="1" stop-color="#18D2C1"/>
    </linearGradient>
  </defs>
  <rect width="640" height="420" rx="40" fill="url(#bg)"/>
  <circle cx="542" cy="86" r="54" fill="#fff" fill-opacity=".7"/>
  <circle cx="88" cy="338" r="72" fill="#4C62FF" fill-opacity=".08"/>
  <rect x="84" y="72" width="472" height="284" rx="34" fill="url(#panel)" stroke="#fff" stroke-opacity=".78"/>
  <rect x="116" y="104" width="122" height="94" rx="24" fill="#F4F7FF"/>
  <rect x="254" y="104" width="122" height="94" rx="24" fill="#F2FDFF"/>
  <rect x="392" y="104" width="132" height="94" rx="24" fill="#F7FBFF"/>
  <rect x="116" y="222" width="408" height="104" rx="26" fill="#0D2653"/>
  <rect x="138" y="250" width="44" height="52" rx="14" fill="url(#blue)"/>
  <rect x="194" y="226" width="44" height="76" rx="14" fill="#7B8EFF"/>
  <rect x="250" y="206" width="44" height="96" rx="14" fill="#10B4FF"/>
  <rect x="306" y="238" width="44" height="64" rx="14" fill="#18D2C1"/>
  <rect x="362" y="188" width="44" height="114" rx="14" fill="#FFD166"/>
  <rect x="418" y="216" width="44" height="86" rx="14" fill="#6BC8FF"/>
  <path d="M144 238c28 4 46-18 78-18 28 0 48 26 82 26 30 0 46-38 84-38 28 0 44 17 90 43" stroke="url(#cyan)" stroke-width="10" stroke-linecap="round"/>
  <circle cx="432" cy="250" r="14" fill="#fff"/>
  <circle cx="432" cy="250" r="8" fill="#18D2C1"/>
  <rect x="136" y="124" width="74" height="12" rx="6" fill="#DDE4FF"/>
  <rect x="136" y="146" width="52" height="12" rx="6" fill="#EBEFFF"/>
  <rect x="274" y="126" width="70" height="12" rx="6" fill="#D6F7FF"/>
  <rect x="274" y="148" width="56" height="12" rx="6" fill="#EAFDFF"/>
  <rect x="412" y="126" width="82" height="12" rx="6" fill="#E5EFFF"/>
  <rect x="412" y="148" width="64" height="12" rx="6" fill="#EFF5FF"/>
</svg>
