<svg xmlns="http://www.w3.org/2000/svg" viewBox="0 0 640 420" fill="none">
  <defs>
    <linearGradient id="bg" x1="74" y1="30" x2="564" y2="390" gradientUnits="userSpaceOnUse">
      <stop stop-color="#E3FFFC"/>
      <stop offset=".54" stop-color="#F3F9FF"/>
      <stop offset="1" stop-color="#E6F1FF"/>
    </linearGradient>
    <linearGradient id="panel" x1="118" y1="84" x2="530" y2="332" gradientUnits="userSpaceOnUse">
      <stop stop-color="#FFFFFF" stop-opacity=".95"/>
      <stop offset="1" stop-color="#FFFFFF" stop-opacity=".7"/>
    </linearGradient>
    <linearGradient id="ring" x1="0" y1="0" x2="1" y2="1">
      <stop stop-color="#12CDB8"/>
      <stop offset="1" stop-color="#1578E7"/>
    </linearGradient>
  </defs>
  <rect width="640" height="420" rx="40" fill="url(#bg)"/>
  <circle cx="108" cy="84" r="56" fill="#fff" fill-opacity=".66"/>
  <circle cx="542" cy="336" r="78" fill="#1578E7" fill-opacity=".08"/>
  <rect x="94" y="70" width="452" height="280" rx="34" fill="url(#panel)" stroke="#fff" stroke-opacity=".74"/>
  <rect x="124" y="100" width="218" height="154" rx="28" fill="#0E365C" fill-opacity=".94"/>
  <rect x="366" y="100" width="150" height="72" rx="24" fill="#fff"/>
  <rect x="366" y="188" width="150" height="50" rx="20" fill="#F4FBFF"/>
  <rect x="366" y="252" width="150" height="72" rx="24" fill="#ECFFFC"/>
  <circle cx="218" cy="177" r="50" stroke="url(#ring)" stroke-width="18"/>
  <circle cx="218" cy="177" r="20" fill="#fff" fill-opacity=".18"/>
  <rect x="156" y="274" width="156" height="12" rx="6" fill="#fff" fill-opacity=".24"/>
  <rect x="156" y="296" width="120" height="12" rx="6" fill="#fff" fill-opacity=".16"/>
  <rect x="388" y="118" width="94" height="12" rx="6" fill="#DDEEFE"/>
  <rect x="388" y="140" width="64" height="12" rx="6" fill="#EAF5FF"/>
  <rect x="388" y="204" width="96" height="10" rx="5" fill="#D8EEF9"/>
  <rect x="388" y="222" width="72" height="10" rx="5" fill="#EAF7FF"/>
  <rect x="388" y="276" width="36" height="28" rx="12" fill="#12CDB8" fill-opacity=".22"/>
  <rect x="432" y="264" width="36" height="40" rx="12" fill="#1578E7" fill-opacity=".18"/>
  <rect x="476" y="248" width="36" height="56" rx="12" fill="#FFD166" fill-opacity=".42"/>
</svg>
